<svg width="75" height="27" viewBox="0 0 75 27" fill="none" xmlns="http://www.w3.org/2000/svg">
  <path d="M7.49023 17.9316L7.98242 21.3066L8.70312 18.2656L13.7656 0.40625H16.6133L21.5527 18.2656L22.2559 21.3594L22.8008 17.9141L26.7734 0.40625H30.166L23.9609 26H20.8848L15.6113 7.34961L15.207 5.39844L14.8027 7.34961L9.33594 26H6.25977L0.0722656 0.40625H3.44727L7.49023 17.9316ZM41.4688 14.5918C38.5742 13.7598 36.4648 12.7402 35.1406 11.5332C33.8281 10.3145 33.1719 8.81445 33.1719 7.0332C33.1719 5.01758 33.9746 3.35352 35.5801 2.04102C37.1973 0.716797 39.2949 0.0546875 41.873 0.0546875C43.6309 0.0546875 45.1953 0.394531 46.5664 1.07422C47.9492 1.75391 49.0156 2.69141 49.7656 3.88672C50.5273 5.08203 50.9082 6.38867 50.9082 7.80664H47.5156C47.5156 6.25977 47.0234 5.04688 46.0391 4.16797C45.0547 3.27734 43.666 2.83203 41.873 2.83203C40.209 2.83203 38.9082 3.20117 37.9707 3.93945C37.0449 4.66602 36.582 5.67969 36.582 6.98047C36.582 8.02344 37.0215 8.9082 37.9004 9.63477C38.791 10.3496 40.2969 11.0059 42.418 11.6035C44.5508 12.2012 46.2148 12.8633 47.4102 13.5898C48.6172 14.3047 49.5078 15.1426 50.082 16.1035C50.668 17.0645 50.9609 18.1953 50.9609 19.4961C50.9609 21.5703 50.1523 23.2344 48.5352 24.4883C46.918 25.7305 44.7559 26.3516 42.0488 26.3516C40.291 26.3516 38.6504 26.0176 37.127 25.3496C35.6035 24.6699 34.4258 23.7441 33.5938 22.5723C32.7734 21.4004 32.3633 20.0703 32.3633 18.582H35.7559C35.7559 20.1289 36.3242 21.3535 37.4609 22.2559C38.6094 23.1465 40.1387 23.5918 42.0488 23.5918C43.8301 23.5918 45.1953 23.2285 46.1445 22.502C47.0938 21.7754 47.5684 20.7852 47.5684 19.5312C47.5684 18.2773 47.1289 17.3105 46.25 16.6309C45.3711 15.9395 43.7773 15.2598 41.4688 14.5918ZM74.1289 17.8789C73.8125 20.5859 72.8105 22.6777 71.123 24.1543C69.4473 25.6191 67.2148 26.3516 64.4258 26.3516C61.4023 26.3516 58.9766 25.2676 57.1484 23.0996C55.332 20.9316 54.4238 18.0312 54.4238 14.3984V11.9375C54.4238 9.55859 54.8457 7.4668 55.6895 5.66211C56.5449 3.85742 57.752 2.47461 59.3105 1.51367C60.8691 0.541016 62.6738 0.0546875 64.7246 0.0546875C67.4434 0.0546875 69.623 0.816406 71.2637 2.33984C72.9043 3.85156 73.8594 5.94922 74.1289 8.63281H70.7363C70.4434 6.59375 69.8047 5.11719 68.8203 4.20312C67.8477 3.28906 66.4824 2.83203 64.7246 2.83203C62.5684 2.83203 60.875 3.62891 59.6445 5.22266C58.4258 6.81641 57.8164 9.08398 57.8164 12.0254V14.5039C57.8164 17.2812 58.3965 19.4902 59.5566 21.1309C60.7168 22.7715 62.3398 23.5918 64.4258 23.5918C66.3008 23.5918 67.7363 23.1699 68.7324 22.3262C69.7402 21.4707 70.4082 19.9883 70.7363 17.8789H74.1289Z" fill="white"/>
</svg>
